<?xml version="1.0" encoding="UTF-8"?>
<!DOCTYPE svg PUBLIC "-//W3C//DTD SVG 1.1//EN" "http://www.w3.org/Graphics/SVG/1.1/DTD/svg11.dtd">
<!-- Creator: CorelDRAW 2019 (64 Bit) -->
<svg xmlns="http://www.w3.org/2000/svg" xml:space="preserve" width="15.875mm" height="15.875mm" version="1.1" style="shape-rendering:geometricPrecision; text-rendering:geometricPrecision; image-rendering:optimizeQuality; fill-rule:evenodd; clip-rule:evenodd"
viewBox="0 0 2860.56 2860.56"
 xmlns:xlink="http://www.w3.org/1999/xlink">
 <defs>
  <style type="text/css">
   <![CDATA[
    .fil0 {fill:#E6E7E8}
   ]]>
  </style>
 </defs>
 <g id="Camada_x0020_1">
  <metadata id="CorelCorpID_0Corel-Layer"/>
  <path class="fil0" d="M1430.28 0c789.93,0 1430.28,640.35 1430.28,1430.28 0,789.93 -640.35,1430.28 -1430.28,1430.28 -789.93,0 -1430.28,-640.35 -1430.28,-1430.28 0,-789.93 640.35,-1430.28 1430.28,-1430.28zm-468.79 1549.77l-58.22 491.4 143.02 0 43.7 -373.45c22.67,-22.61 39.14,-37.35 68.92,-37.35 29.8,0 8.2,64.85 63.81,64.85 48.67,0 67.95,-37.34 64.67,-71.73 -3.6,-37.35 -30.92,-73.72 -75.61,-73.72 -47.68,0 -82.4,31.46 -114.33,60.94l7.06 -60.94 -143.02 0zm-753.55 -169.83l70.15 0 228.2 -610.66c-98.33,32.42 -157.94,109.09 -157.94,221.11 0,52.09 12.92,58.98 13.91,67.81 -64.56,0 -106.28,-24.56 -106.28,-89.43 0,-125.79 164.88,-261.42 315.86,-261.42 25.82,0 51.64,4.92 75.48,13.77l-22.85 517.93 218.52 -517.93 143.02 0 -94.98 658.82 81.9 0c-10.52,-22.7 -16.7,-51.64 -16.7,-87.83 0,-132.68 82.44,-343.97 255.28,-343.97 56.6,0 80.44,21.62 80.44,50.11l0 6.88 10.92 -52.09 143.04 0 -71.52 334.15c-2.97,12.78 -3.98,22.61 -3.98,31.46 0,27.52 12.92,42.26 40.74,42.26 38.72,0 65.55,-43.25 80.46,-92.38l59.59 -276.16 -32.78 0 7.95 -39.32 32.78 0 29.8 -135.61 147 -19.66 -33.77 155.27 59.59 0 -7.95 39.32 -59.61 0 -63.55 294.83c-2.99,12.78 -3.96,22.61 -3.96,31.46 0,27.52 12.9,36.34 40.71,36.34 30.11,0 58.42,-22.56 76.53,-55.68l-0.04 -5.24c0,-113.99 65.54,-349.88 267.19,-349.88 88.4,0 110.26,45.21 110.26,90.42 0,48.17 -23.86,71.75 -52.65,71.75 -10.94,0 -22.85,-3.93 -34.78,-11.78l0 0c7.95,-21.62 11.93,-41.28 11.93,-58 0,-24.56 -8.94,-40.29 -27.82,-40.29 -62.56,0 -127.13,179.85 -127.13,288.94 0,66.83 23.84,82.56 71.5,82.56 77.92,0 125.47,-42.63 174.73,-98.04l106.39 -493.6 146.97 -19.66 -53.63 246.68c42.71,-46.18 85.43,-54.06 116.21,-54.06 63.57,0 110.24,32.43 110.24,111.05 0,79.61 -47.66,198.54 -47.66,253.57 0,24.58 9.93,41.26 39.73,41.26 16.87,0 26.81,-1.95 32.78,-5.89 -1.42,11.3 -3.86,21.55 -7.12,30.83l71.59 0c10.14,0 18.42,8.27 18.42,18.42l0 0.02c0,10.14 -8.27,18.42 -18.42,18.42l-92.94 0 -151.78 0c-3.33,26.74 -9.33,75.25 -16.13,132.98l59.61 0 -4.18 39.32 -59.61 0 -35.34 294.83c-1.84,11.8 -2.7,23.59 -1.66,34.42 1.96,20.63 11.32,35.37 38.15,35.37 6.96,0 17.88,0 25.53,-2.96 -19.7,84.53 -62.29,96.31 -96.06,96.31 -69.52,0 -103.94,-48.17 -109.95,-111.05 -0.74,-7.73 -1.06,-15.69 -1.01,-23.75 -33.66,33.14 -67.93,57.16 -98.3,75.84 -37.57,43.23 -99.65,58.96 -150.32,58.96 -70.17,0 -115.72,-31.59 -139,-70.94 -45.73,60.45 -103.72,70.94 -141.07,70.94 -51.82,0 -96.44,-26.76 -112.4,-88.02 -47.1,75.61 -112.19,88.02 -152.8,88.02 -59.59,0 -109.67,-35.37 -117.56,-117.94 -1.8,-18.67 -0.88,-40.29 1.82,-63.88l33.16 -276.16 -32.78 0 4.16 -39.32 32.78 0 16.49 -132.98 -94.62 0 -72.38 0 -185.74 0 -112.96 0 -1.98 0 -74.83 624.39 -143.04 0 42.31 -356.75c-52.81,-22.61 -92.4,-31.44 -136.48,-35.39 -59.16,160.21 -95.9,346.93 -86.11,449.13 3.01,31.46 12.36,46.2 19.17,55.05 -53.64,0 -133.27,-1.96 -143.07,-104.19 -8.47,-88.46 35.7,-249.62 107.7,-399.99 -61.21,3.95 -101.59,17.69 -111.31,51.12 4.96,0 14.51,16.7 15.82,30.45 2.25,23.59 -21.15,38.33 -51.95,38.33 -33.77,0 -63.37,-18.67 -67.03,-57 -6.4,-66.83 73.84,-120.87 191.04,-120.87 13.91,0 30.89,0.97 51.93,2.94 35.84,-66.09 77.19,-127.85 121.7,-177.22l-138.89 0 -136.89 0 -79.48 0 -56.38 0c-10.14,0 -18.42,-8.27 -18.42,-18.42l0 -0.02c0,-10.14 8.27,-18.42 18.42,-18.42zm149.65 0l124.77 0 16.97 -378.73 -141.74 378.73zm285.23 0l13.15 0 79.21 0 9.08 0 3.73 0 54.29 -376.77 -159.47 376.77zm578.71 0l18.2 0c-1.55,-6.25 -2.68,-12.94 -3.41,-20 -4.58,6.72 -9.48,13.44 -14.79,20zm252.63 0l15.86 0c-1.53,-5.06 -2.81,-10.42 -3.8,-16.07 -3.96,5.71 -8,11.06 -12.05,16.07zm276.92 0l10.16 0c-3.14,-6.29 -5.87,-13.03 -8.2,-20.25 -5.12,7.32 -10.36,14.04 -15.68,20.25l13.71 0zm329.07 0l33.23 0 9.35 -43.35c-13.08,15.39 -27.23,30.02 -42.58,43.35zm176.26 0l126.98 0c-3.37,-12.94 -4.83,-26.76 -4.83,-40.65 0,-66.83 44.69,-187.71 44.69,-250.61l0 0c0,-32.42 -11.91,-50.11 -35.75,-50.11 -32.78,0 -59.59,34.4 -74.47,78.62l-56.62 262.76zm8.83 36.85l-16.78 0 -143.04 0 -77.3 0 -238.47 0 -24.49 0 0.25 2.29c4.14,43.23 -28.31,77.63 -72.02,77.63 -43.71,0 -81.75,-34.4 -85.9,-77.63l-0.18 -2.29 -97.93 0 -15.21 0 -16.2 132.98 59.59 0 -4.16 39.32 -59.59 0 -35.35 294.83c-1.77,12.78 -1.8,22.61 -0.96,31.46 2.63,27.52 16.38,36.34 44.2,36.34 38.72,0 70.92,-37.34 81.1,-86.47l37.34 -315.48 143.04 0 -39.52 334.15c-1.77,12.78 -1.82,22.61 -0.97,31.46 2.63,27.52 16.4,36.34 44.2,36.34 21.05,0 40.17,-11.01 54.87,-28.98l-0.16 -1.48c-4.32,-45.21 18.29,-78.64 43.88,-91.39 46.31,-97.3 72.74,-194.59 94.31,-290.92l145.13 -19.64c36.29,254.54 49.9,292.87 56.11,357.74 1.32,13.75 1.44,25.55 -0.4,37.34 25.32,-15.73 49.43,-33.41 66.8,-49.14l4.04 0 33.1 -276.16 -32.78 0 4.18 -39.32 32.78 0 16.49 -132.98zm-1525.39 0l-44.69 0c-38.51,44.58 -75,112.67 -106.66,190 40.47,7.87 84.22,18.67 124.46,34.4l26.88 -224.39zm1179.54 448.46c-1.59,-16.7 -12.67,-28.51 -26.13,-34.4 26.76,-62.89 48.9,-121.86 62.65,-185.74 24.43,151.34 36.29,181.81 41.19,232.92 6.58,68.8 -33.97,91.39 -77.68,91.39 -43.7,0 -62.74,-22.6 -67.16,-68.78 5.89,9.82 18.09,12.76 28.04,12.76 25.8,0 41.34,-24.56 39.08,-48.15zm-677.11 -856.17c31.79,0 40.72,25.53 40.72,37.34l-47.68 222.11c-11.93,57 -53.63,86.47 -82.46,86.47 -17.88,0 -49.64,-0.97 -49.64,-76.65 0,-92.37 54.63,-269.26 139.05,-269.26z"/>
 </g>
</svg>
